<svg xmlns="http://www.w3.org/2000/svg" viewBox="0 0 1200 675" role="img" aria-labelledby="title description">
  <title id="title">Dparamet portfolio preview</title>
  <desc id="description">A stylized dark portfolio interface with navigation, introduction text, and project cards.</desc>
  <defs>
    <linearGradient id="background" x1="0" y1="0" x2="1" y2="1">
      <stop offset="0" stop-color="#0d1117"/>
      <stop offset="1" stop-color="#111827"/>
    </linearGradient>
    <linearGradient id="accent" x1="0" y1="0" x2="1" y2="1">
      <stop offset="0" stop-color="#38bdf8"/>
      <stop offset="1" stop-color="#0ea5e9"/>
    </linearGradient>
    <filter id="glow" x="-50%" y="-50%" width="200%" height="200%">
      <feGaussianBlur stdDeviation="16"/>
    </filter>
  </defs>
  <rect width="1200" height="675" rx="24" fill="url(#background)"/>
  <circle cx="1020" cy="110" r="180" fill="#0ea5e9" opacity=".12" filter="url(#glow)"/>
  <rect x="46" y="38" width="1108" height="54" rx="14" fill="#161b22" stroke="#30363d"/>
  <circle cx="76" cy="65" r="7" fill="#fb7185"/>
  <circle cx="100" cy="65" r="7" fill="#fbbf24"/>
  <circle cx="124" cy="65" r="7" fill="#4ade80"/>
  <rect x="880" y="59" width="52" height="12" rx="6" fill="#8b949e" opacity=".7"/>
  <rect x="952" y="59" width="62" height="12" rx="6" fill="#8b949e" opacity=".7"/>
  <rect x="1034" y="59" width="74" height="12" rx="6" fill="#38bdf8"/>
  <text x="76" y="176" fill="#7dd3fc" font-family="Arial, sans-serif" font-size="20" font-weight="700" letter-spacing="4">HELLO, I'M</text>
  <text x="76" y="236" fill="#f8fafc" font-family="Arial, sans-serif" font-size="58" font-weight="800">Dparamet</text>
  <text x="76" y="278" fill="#bae6fd" font-family="Arial, sans-serif" font-size="25" font-weight="600">Web Developer &amp; Lifelong Learner</text>
  <rect x="76" y="312" width="460" height="12" rx="6" fill="#8b949e" opacity=".55"/>
  <rect x="76" y="338" width="390" height="12" rx="6" fill="#8b949e" opacity=".35"/>
  <rect x="76" y="386" width="142" height="46" rx="10" fill="url(#accent)"/>
  <text x="109" y="416" fill="#082f49" font-family="Arial, sans-serif" font-size="17" font-weight="700">VIEW WORK</text>
  <circle cx="920" cy="267" r="128" fill="#161b22" stroke="#38bdf8" stroke-width="3"/>
  <text x="920" y="290" fill="#f8fafc" font-family="Arial, sans-serif" font-size="72" font-weight="800" text-anchor="middle">DK</text>
  <g transform="translate(76 500)">
    <rect width="320" height="118" rx="14" fill="#161b22" stroke="#30363d"/>
    <rect x="22" y="22" width="145" height="14" rx="7" fill="#58a6ff"/>
    <rect x="22" y="52" width="250" height="9" rx="4.5" fill="#8b949e" opacity=".55"/>
    <circle cx="28" cy="91" r="6" fill="#f1e05a"/>
    <rect x="42" y="86" width="76" height="10" rx="5" fill="#8b949e" opacity=".55"/>
  </g>
  <g transform="translate(416 500)">
    <rect width="320" height="118" rx="14" fill="#161b22" stroke="#30363d"/>
    <rect x="22" y="22" width="122" height="14" rx="7" fill="#58a6ff"/>
    <rect x="22" y="52" width="236" height="9" rx="4.5" fill="#8b949e" opacity=".55"/>
    <circle cx="28" cy="91" r="6" fill="#3178c6"/>
    <rect x="42" y="86" width="84" height="10" rx="5" fill="#8b949e" opacity=".55"/>
  </g>
  <g transform="translate(756 500)">
    <rect width="320" height="118" rx="14" fill="#161b22" stroke="#30363d"/>
    <rect x="22" y="22" width="164" height="14" rx="7" fill="#58a6ff"/>
    <rect x="22" y="52" width="266" height="9" rx="4.5" fill="#8b949e" opacity=".55"/>
    <circle cx="28" cy="91" r="6" fill="#61dafb"/>
    <rect x="42" y="86" width="68" height="10" rx="5" fill="#8b949e" opacity=".55"/>
  </g>
</svg>
